<svg xmlns="http://www.w3.org/2000/svg" viewBox="0 0 1280 720" role="img" aria-labelledby="title desc">
  <title id="title">Attendance Mobile Flow Preview</title>
  <desc id="desc">A mobile attendance flow with status screens, check buttons, and history rows.</desc>
  <rect width="1280" height="720" fill="#fff7f7"/>
  <rect x="206" y="88" width="224" height="544" rx="38" fill="#241516"/>
  <rect x="234" y="142" width="168" height="420" rx="24" fill="#ffffff"/>
  <rect x="266" y="186" width="88" height="12" rx="6" fill="#c91d2e"/>
  <circle cx="318" cy="304" r="62" fill="#f8d7dc"/>
  <path d="M286 304l22 22 48-58" fill="none" stroke="#c91d2e" stroke-width="16" stroke-linecap="round" stroke-linejoin="round"/>
  <rect x="266" y="414" width="104" height="36" rx="18" fill="#c91d2e"/>
  <rect x="528" y="88" width="224" height="544" rx="38" fill="#241516"/>
  <rect x="556" y="142" width="168" height="420" rx="24" fill="#ffffff"/>
  <rect x="588" y="186" width="98" height="12" rx="6" fill="#c91d2e"/>
  <rect x="588" y="254" width="104" height="44" rx="14" fill="#f8d7dc"/>
  <rect x="588" y="330" width="104" height="44" rx="14" fill="#f8d7dc"/>
  <rect x="588" y="406" width="104" height="44" rx="14" fill="#f8d7dc"/>
  <rect x="850" y="88" width="224" height="544" rx="38" fill="#241516"/>
  <rect x="878" y="142" width="168" height="420" rx="24" fill="#ffffff"/>
  <rect x="910" y="186" width="72" height="12" rx="6" fill="#c91d2e"/>
  <rect x="910" y="252" width="104" height="14" rx="7" fill="#241516"/>
  <rect x="910" y="288" width="82" height="10" rx="5" fill="#6f6063"/>
  <rect x="910" y="348" width="104" height="14" rx="7" fill="#241516"/>
  <rect x="910" y="384" width="82" height="10" rx="5" fill="#6f6063"/>
</svg>
