<svg xmlns="http://www.w3.org/2000/svg" viewBox="0 0 1280 720" role="img" aria-labelledby="title desc">
  <title id="title">Learning Management Dashboard Preview</title>
  <desc id="desc">A learning dashboard interface with stats, course cards, and a red accent.</desc>
  <rect width="1280" height="720" fill="#fff7f7"/>
  <rect x="94" y="78" width="1092" height="564" rx="30" fill="#ffffff" stroke="#ead2d5" stroke-width="4"/>
  <rect x="94" y="78" width="220" height="564" rx="30" fill="#241516"/>
  <circle cx="162" cy="150" r="26" fill="#ff4d5f"/>
  <rect x="204" y="134" width="70" height="12" rx="6" fill="#fff7f7"/>
  <rect x="204" y="158" width="42" height="10" rx="5" fill="#f8d7dc"/>
  <rect x="140" y="244" width="130" height="14" rx="7" fill="#ff4d5f"/>
  <rect x="140" y="298" width="108" height="14" rx="7" fill="#caa5aa"/>
  <rect x="140" y="352" width="128" height="14" rx="7" fill="#caa5aa"/>
  <text x="372" y="150" fill="#241516" font-family="Arial, sans-serif" font-size="40" font-weight="700">Course Overview</text>
  <rect x="374" y="206" width="210" height="112" rx="20" fill="#c91d2e"/>
  <rect x="620" y="206" width="210" height="112" rx="20" fill="#f8d7dc"/>
  <rect x="866" y="206" width="210" height="112" rx="20" fill="#f8d7dc"/>
  <rect x="374" y="374" width="702" height="164" rx="22" fill="#fff7f7" stroke="#ead2d5" stroke-width="3"/>
  <rect x="414" y="418" width="150" height="18" rx="9" fill="#241516"/>
  <rect x="414" y="462" width="590" height="12" rx="6" fill="#6f6063"/>
  <rect x="414" y="496" width="440" height="12" rx="6" fill="#caa5aa"/>
</svg>
