<svg xmlns="http://www.w3.org/2000/svg" viewBox="0 0 1280 720" role="img" aria-labelledby="title desc">
  <title id="title">Mentor Dashboard Preview</title>
  <desc id="desc">A mentor dashboard with assignment rows, reports, and announcement cards.</desc>
  <rect width="1280" height="720" fill="#151827"/>
  <rect x="96" y="82" width="1088" height="556" rx="28" fill="#182235" stroke="#263349" stroke-width="4"/>
  <rect x="144" y="132" width="240" height="456" rx="22" fill="#111827"/>
  <rect x="188" y="178" width="136" height="18" rx="9" fill="#ff4d5f"/>
  <rect x="188" y="252" width="112" height="12" rx="6" fill="#94a3b8"/>
  <rect x="188" y="306" width="138" height="12" rx="6" fill="#94a3b8"/>
  <rect x="188" y="360" width="96" height="12" rx="6" fill="#94a3b8"/>
  <text x="444" y="178" fill="#eef2ff" font-family="Arial, sans-serif" font-size="38" font-weight="700">Mentor Workspace</text>
  <rect x="444" y="226" width="250" height="122" rx="20" fill="#ff4d5f"/>
  <rect x="724" y="226" width="320" height="122" rx="20" fill="#22304a"/>
  <rect x="444" y="408" width="600" height="46" rx="14" fill="#22304a"/>
  <rect x="474" y="424" width="150" height="14" rx="7" fill="#eef2ff"/>
  <rect x="820" y="424" width="170" height="14" rx="7" fill="#94a3b8"/>
  <rect x="444" y="478" width="600" height="46" rx="14" fill="#22304a"/>
  <rect x="474" y="494" width="190" height="14" rx="7" fill="#eef2ff"/>
  <rect x="820" y="494" width="120" height="14" rx="7" fill="#94a3b8"/>
</svg>
