<svg xmlns="http://www.w3.org/2000/svg" viewBox="0 0 1280 720" role="img" aria-labelledby="title desc">
  <title id="title">Portfolio Website Preview</title>
  <desc id="desc">A red portfolio website mockup with sidebar navigation and project cards.</desc>
  <rect width="1280" height="720" fill="#141b2d"/>
  <rect x="90" y="80" width="1100" height="560" rx="28" fill="#fff7f7"/>
  <rect x="130" y="128" width="310" height="464" rx="18" fill="#241516"/>
  <text x="170" y="205" fill="#fff7f7" font-family="Arial, sans-serif" font-size="42" font-weight="700">Benita</text>
  <text x="170" y="255" fill="#ff4d5f" font-family="Arial, sans-serif" font-size="22" font-weight="700">Front End Developer</text>
  <rect x="170" y="344" width="120" height="4" rx="2" fill="#c91d2e"/>
  <rect x="170" y="384" width="170" height="4" rx="2" fill="#ead2d5"/>
  <rect x="170" y="424" width="140" height="4" rx="2" fill="#ead2d5"/>
  <rect x="500" y="128" width="560" height="92" rx="18" fill="#ffffff" stroke="#ead2d5" stroke-width="3"/>
  <rect x="532" y="158" width="120" height="32" rx="16" fill="#f8d7dc"/>
  <rect x="690" y="158" width="290" height="14" rx="7" fill="#6f6063"/>
  <rect x="690" y="184" width="210" height="12" rx="6" fill="#caa5aa"/>
  <rect x="500" y="260" width="560" height="270" rx="22" fill="#ffffff" stroke="#ead2d5" stroke-width="3"/>
  <rect x="540" y="312" width="180" height="110" rx="14" fill="#c91d2e"/>
  <rect x="760" y="312" width="230" height="18" rx="9" fill="#241516"/>
  <rect x="760" y="354" width="250" height="14" rx="7" fill="#6f6063"/>
  <rect x="760" y="384" width="190" height="14" rx="7" fill="#6f6063"/>
  <rect x="760" y="444" width="92" height="30" rx="15" fill="#f8d7dc"/>
  <rect x="870" y="444" width="116" height="30" rx="15" fill="#f8d7dc"/>
</svg>
